<?xml version="1.0" encoding="utf-8"?>
<svg  version="1.1" id="Layer_1" xmlns="&ns_svg;" xmlns:xlink="&ns_xlink;" width="106" height="106" viewBox="0 0 106 106"
	 overflow="visible" enable-background="new 0 0 106 106" xml:space="preserve">
<g>
	<path fill="#99ff00" d="M67.473,39.592c-1.504-2.34-3.182-4.455-5.684-5.698c-3.049-1.518-4.367-2.051-9.428-2.313
		c-5.536,0-9.796,1.299-13.184,4.3c-3.389,3-6.038,7.775-5.996,12.371h11.816c0.024-2.042-0.315-3.709,1.176-5.003
		c1.489-1.294,3.397-1.941,5.722-1.941c2.274,0,4.087,0.532,5.438,1.595c1.352,1.063,1.641,2.358,1.641,3.887
		c0,1.122-0.278,2.102-0.831,2.938c-0.554,0.836-1.778,2.363-4.447,4.584c-2.771,2.294-4.384,3.647-5.616,6.262
		c-1.234,2.614-1.52,3.688-1.852,6.888l0.013,0.523h11.192c0.124-1.468,0.289-2.125,0.6-3.183c0.378-1.29-0.054-1.69,0.62-2.365
		c0.939-0.938,1.797-1.475,3.737-2.893c2.447-1.789,3.744-3.391,4.35-4.227c1.035-1.432,1.791-2.83,2.27-4.19
		c0.48-1.36,0.721-2.746,0.721-4.156C69.73,44.392,68.976,41.933,67.473,39.592z"/>
</g>
</svg>
